<mxfile host="app.diagrams.net" modified="2023-09-26T13:38:38.421Z" agent="Mozilla/5.0 (Macintosh; Intel Mac OS X 10.15; rv:109.0) Gecko/20100101 Firefox/117.0" etag="E2f3rfuWl644MnSm7k3X" version="21.8.1" type="device">
  <diagram name="Page-1" id="-9-z7LoYfDrQy10ouUkj">
    <mxGraphModel dx="1191" dy="993" grid="1" gridSize="10" guides="1" tooltips="1" connect="1" arrows="1" fold="1" page="1" pageScale="1" pageWidth="850" pageHeight="1100" math="0" shadow="0">
      <root>
        <mxCell id="0" />
        <mxCell id="1" parent="0" />
        <mxCell id="mo-6X1ZLXpEqAN6m1QNW-1" value="Controller" style="swimlane;fontStyle=0;childLayout=stackLayout;horizontal=1;startSize=26;fillColor=none;horizontalStack=0;resizeParent=1;resizeParentMax=0;resizeLast=0;collapsible=1;marginBottom=0;whiteSpace=wrap;html=1;" parent="1" vertex="1">
          <mxGeometry x="220" y="330" width="140" height="120" as="geometry" />
        </mxCell>
        <mxCell id="mo-6X1ZLXpEqAN6m1QNW-2" value="+ service: Service&lt;br&gt;+getEntity(id): Entity @GetMapping()" style="text;strokeColor=none;fillColor=none;align=left;verticalAlign=top;spacingLeft=4;spacingRight=4;overflow=hidden;rotatable=0;points=[[0,0.5],[1,0.5]];portConstraint=eastwest;whiteSpace=wrap;html=1;" parent="mo-6X1ZLXpEqAN6m1QNW-1" vertex="1">
          <mxGeometry y="26" width="140" height="94" as="geometry" />
        </mxCell>
        <mxCell id="mo-6X1ZLXpEqAN6m1QNW-7" value="1" style="endArrow=open;html=1;endSize=12;startArrow=diamondThin;startSize=14;startFill=1;edgeStyle=orthogonalEdgeStyle;align=left;verticalAlign=bottom;rounded=0;exitX=1;exitY=0.362;exitDx=0;exitDy=0;exitPerimeter=0;" parent="1" source="mo-6X1ZLXpEqAN6m1QNW-2" edge="1">
          <mxGeometry x="-1" y="3" relative="1" as="geometry">
            <mxPoint x="270" y="355.5" as="sourcePoint" />
            <mxPoint x="430" y="355.5" as="targetPoint" />
          </mxGeometry>
        </mxCell>
        <mxCell id="mo-6X1ZLXpEqAN6m1QNW-9" value="" style="endArrow=open;startArrow=circlePlus;endFill=0;startFill=0;endSize=8;html=1;rounded=0;exitX=0.5;exitY=0;exitDx=0;exitDy=0;" parent="1" source="mo-6X1ZLXpEqAN6m1QNW-1" edge="1">
          <mxGeometry width="160" relative="1" as="geometry">
            <mxPoint x="370" y="520" as="sourcePoint" />
            <mxPoint x="290" y="170" as="targetPoint" />
          </mxGeometry>
        </mxCell>
        <mxCell id="mo-6X1ZLXpEqAN6m1QNW-10" value="&lt;i&gt;@RestController&lt;/i&gt;" style="html=1;whiteSpace=wrap;" parent="1" vertex="1">
          <mxGeometry x="235" y="120" width="110" height="50" as="geometry" />
        </mxCell>
        <mxCell id="mo-6X1ZLXpEqAN6m1QNW-11" value="Service" style="swimlane;fontStyle=0;childLayout=stackLayout;horizontal=1;startSize=26;fillColor=none;horizontalStack=0;resizeParent=1;resizeParentMax=0;resizeLast=0;collapsible=1;marginBottom=0;whiteSpace=wrap;html=1;" parent="1" vertex="1">
          <mxGeometry x="430" y="330" width="140" height="120" as="geometry" />
        </mxCell>
        <mxCell id="mo-6X1ZLXpEqAN6m1QNW-12" value="&lt;div&gt;+ repo: Repo&lt;/div&gt;&lt;div&gt;+mapper:ModelMapper&lt;/div&gt;+getEntity(id):Entity" style="text;strokeColor=none;fillColor=none;align=left;verticalAlign=top;spacingLeft=4;spacingRight=4;overflow=hidden;rotatable=0;points=[[0,0.5],[1,0.5]];portConstraint=eastwest;whiteSpace=wrap;html=1;" parent="mo-6X1ZLXpEqAN6m1QNW-11" vertex="1">
          <mxGeometry y="26" width="140" height="94" as="geometry" />
        </mxCell>
        <mxCell id="mo-6X1ZLXpEqAN6m1QNW-13" value="&lt;i&gt;@Service&lt;/i&gt;" style="html=1;whiteSpace=wrap;fontStyle=1" parent="1" vertex="1">
          <mxGeometry x="440" y="120" width="110" height="50" as="geometry" />
        </mxCell>
        <mxCell id="mo-6X1ZLXpEqAN6m1QNW-14" value="1" style="endArrow=open;html=1;endSize=12;startArrow=diamondThin;startSize=14;startFill=1;edgeStyle=orthogonalEdgeStyle;align=left;verticalAlign=bottom;rounded=0;exitX=1;exitY=0;exitDx=0;exitDy=0;exitPerimeter=0;" parent="1" edge="1" source="mo-6X1ZLXpEqAN6m1QNW-12">
          <mxGeometry x="-1" y="3" relative="1" as="geometry">
            <mxPoint x="490" y="355.5" as="sourcePoint" />
            <mxPoint x="650" y="355.5" as="targetPoint" />
          </mxGeometry>
        </mxCell>
        <mxCell id="mo-6X1ZLXpEqAN6m1QNW-17" value="&lt;i&gt;Repo&lt;/i&gt;" style="html=1;whiteSpace=wrap;" parent="1" vertex="1">
          <mxGeometry x="650" y="330" width="110" height="50" as="geometry" />
        </mxCell>
        <mxCell id="mo-6X1ZLXpEqAN6m1QNW-18" value="Extends" style="endArrow=block;endSize=16;endFill=0;html=1;rounded=0;" parent="1" source="mo-6X1ZLXpEqAN6m1QNW-17" edge="1">
          <mxGeometry width="160" relative="1" as="geometry">
            <mxPoint x="370" y="770" as="sourcePoint" />
            <mxPoint x="700" y="190" as="targetPoint" />
          </mxGeometry>
        </mxCell>
        <mxCell id="mo-6X1ZLXpEqAN6m1QNW-19" value="&lt;i&gt;@JpaRepository&amp;lt;Entity,PK_Type, DbEntity&amp;gt;&lt;/i&gt;" style="html=1;whiteSpace=wrap;" parent="1" vertex="1">
          <mxGeometry x="640" y="140" width="110" height="50" as="geometry" />
        </mxCell>
        <mxCell id="mo-6X1ZLXpEqAN6m1QNW-20" value="DbEntity" style="swimlane;fontStyle=0;childLayout=stackLayout;horizontal=1;startSize=26;fillColor=none;horizontalStack=0;resizeParent=1;resizeParentMax=0;resizeLast=0;collapsible=1;marginBottom=0;whiteSpace=wrap;html=1;" parent="1" vertex="1">
          <mxGeometry x="650" y="790" width="140" height="110" as="geometry" />
        </mxCell>
        <mxCell id="mo-6X1ZLXpEqAN6m1QNW-21" value="+ pk: PK_Type :@Id&lt;br&gt;+name: String: @Column" style="text;strokeColor=none;fillColor=none;align=left;verticalAlign=top;spacingLeft=4;spacingRight=4;overflow=hidden;rotatable=0;points=[[0,0.5],[1,0.5]];portConstraint=eastwest;whiteSpace=wrap;html=1;" parent="mo-6X1ZLXpEqAN6m1QNW-20" vertex="1">
          <mxGeometry y="26" width="140" height="84" as="geometry" />
        </mxCell>
        <mxCell id="mo-6X1ZLXpEqAN6m1QNW-22" value="&lt;i&gt;@Entity&lt;/i&gt;" style="html=1;whiteSpace=wrap;fontStyle=1" parent="1" vertex="1">
          <mxGeometry x="540" y="570" width="110" height="50" as="geometry" />
        </mxCell>
        <mxCell id="mo-6X1ZLXpEqAN6m1QNW-23" value="&lt;i&gt;@Table&lt;/i&gt;" style="html=1;whiteSpace=wrap;fontStyle=1" parent="1" vertex="1">
          <mxGeometry x="690" y="560" width="110" height="50" as="geometry" />
        </mxCell>
        <mxCell id="mo-6X1ZLXpEqAN6m1QNW-24" value="" style="endArrow=open;startArrow=circlePlus;endFill=0;startFill=0;endSize=8;html=1;rounded=0;exitX=0.5;exitY=0;exitDx=0;exitDy=0;entryX=0.5;entryY=1;entryDx=0;entryDy=0;" parent="1" target="mo-6X1ZLXpEqAN6m1QNW-22" edge="1">
          <mxGeometry width="160" relative="1" as="geometry">
            <mxPoint x="719.5" y="790" as="sourcePoint" />
            <mxPoint x="719.5" y="630" as="targetPoint" />
          </mxGeometry>
        </mxCell>
        <mxCell id="mo-6X1ZLXpEqAN6m1QNW-25" value="" style="endArrow=open;startArrow=circlePlus;endFill=0;startFill=0;endSize=8;html=1;rounded=0;entryX=0.5;entryY=1;entryDx=0;entryDy=0;" parent="1" source="mo-6X1ZLXpEqAN6m1QNW-20" target="mo-6X1ZLXpEqAN6m1QNW-23" edge="1">
          <mxGeometry width="160" relative="1" as="geometry">
            <mxPoint x="729.5" y="800" as="sourcePoint" />
            <mxPoint x="605" y="630" as="targetPoint" />
          </mxGeometry>
        </mxCell>
        <mxCell id="mo-6X1ZLXpEqAN6m1QNW-26" value="" style="endArrow=open;startArrow=circlePlus;endFill=0;startFill=0;endSize=8;html=1;rounded=0;exitX=0.457;exitY=0;exitDx=0;exitDy=0;entryX=0.5;entryY=1;entryDx=0;entryDy=0;exitPerimeter=0;" parent="1" source="mo-6X1ZLXpEqAN6m1QNW-11" target="mo-6X1ZLXpEqAN6m1QNW-13" edge="1">
          <mxGeometry width="160" relative="1" as="geometry">
            <mxPoint x="210" y="340" as="sourcePoint" />
            <mxPoint x="210" y="180" as="targetPoint" />
          </mxGeometry>
        </mxCell>
        <mxCell id="mo-6X1ZLXpEqAN6m1QNW-27" value="Entity" style="swimlane;fontStyle=0;childLayout=stackLayout;horizontal=1;startSize=26;fillColor=none;horizontalStack=0;resizeParent=1;resizeParentMax=0;resizeLast=0;collapsible=1;marginBottom=0;whiteSpace=wrap;html=1;" parent="1" vertex="1">
          <mxGeometry x="335" y="770" width="140" height="110" as="geometry" />
        </mxCell>
        <mxCell id="mo-6X1ZLXpEqAN6m1QNW-28" value="+ pk: PK_Type :@Id&lt;br&gt;+name: String: @Column" style="text;strokeColor=none;fillColor=none;align=left;verticalAlign=top;spacingLeft=4;spacingRight=4;overflow=hidden;rotatable=0;points=[[0,0.5],[1,0.5]];portConstraint=eastwest;whiteSpace=wrap;html=1;" parent="mo-6X1ZLXpEqAN6m1QNW-27" vertex="1">
          <mxGeometry y="26" width="140" height="84" as="geometry" />
        </mxCell>
        <mxCell id="mo-6X1ZLXpEqAN6m1QNW-29" value="Configuration" style="swimlane;fontStyle=0;childLayout=stackLayout;horizontal=1;startSize=26;fillColor=none;horizontalStack=0;resizeParent=1;resizeParentMax=0;resizeLast=0;collapsible=1;marginBottom=0;whiteSpace=wrap;html=1;" parent="1" vertex="1">
          <mxGeometry x="30" y="330" width="140" height="120" as="geometry" />
        </mxCell>
        <mxCell id="mo-6X1ZLXpEqAN6m1QNW-30" value="+createModelMapper() @Bean" style="text;strokeColor=none;fillColor=none;align=left;verticalAlign=top;spacingLeft=4;spacingRight=4;overflow=hidden;rotatable=0;points=[[0,0.5],[1,0.5]];portConstraint=eastwest;whiteSpace=wrap;html=1;" parent="mo-6X1ZLXpEqAN6m1QNW-29" vertex="1">
          <mxGeometry y="26" width="140" height="94" as="geometry" />
        </mxCell>
        <mxCell id="mo-6X1ZLXpEqAN6m1QNW-31" value="" style="endArrow=open;startArrow=circlePlus;endFill=0;startFill=0;endSize=8;html=1;rounded=0;exitX=0.5;exitY=0;exitDx=0;exitDy=0;" parent="1" edge="1">
          <mxGeometry width="160" relative="1" as="geometry">
            <mxPoint x="99.5" y="330" as="sourcePoint" />
            <mxPoint x="99.5" y="170" as="targetPoint" />
          </mxGeometry>
        </mxCell>
        <mxCell id="mo-6X1ZLXpEqAN6m1QNW-32" value="&lt;i&gt;@Configuration&lt;/i&gt;" style="html=1;whiteSpace=wrap;" parent="1" vertex="1">
          <mxGeometry x="45" y="120" width="110" height="50" as="geometry" />
        </mxCell>
        <mxCell id="mo-6X1ZLXpEqAN6m1QNW-33" value="Main" style="swimlane;fontStyle=0;childLayout=stackLayout;horizontal=1;startSize=26;fillColor=none;horizontalStack=0;resizeParent=1;resizeParentMax=0;resizeLast=0;collapsible=1;marginBottom=0;whiteSpace=wrap;html=1;" parent="1" vertex="1">
          <mxGeometry x="20" y="740" width="220" height="120" as="geometry" />
        </mxCell>
        <mxCell id="mo-6X1ZLXpEqAN6m1QNW-34" value="+main(String[]args): SpringApplication.run(Main.class,args)" style="text;strokeColor=none;fillColor=none;align=left;verticalAlign=top;spacingLeft=4;spacingRight=4;overflow=hidden;rotatable=0;points=[[0,0.5],[1,0.5]];portConstraint=eastwest;whiteSpace=wrap;html=1;" parent="mo-6X1ZLXpEqAN6m1QNW-33" vertex="1">
          <mxGeometry y="26" width="220" height="94" as="geometry" />
        </mxCell>
        <mxCell id="mo-6X1ZLXpEqAN6m1QNW-35" value="" style="endArrow=open;startArrow=circlePlus;endFill=0;startFill=0;endSize=8;html=1;rounded=0;exitX=0.5;exitY=0;exitDx=0;exitDy=0;" parent="1" edge="1">
          <mxGeometry width="160" relative="1" as="geometry">
            <mxPoint x="89.5" y="740" as="sourcePoint" />
            <mxPoint x="89.5" y="580" as="targetPoint" />
          </mxGeometry>
        </mxCell>
        <mxCell id="mo-6X1ZLXpEqAN6m1QNW-36" value="&lt;i&gt;@SpringBootApplication&lt;/i&gt;" style="html=1;whiteSpace=wrap;" parent="1" vertex="1">
          <mxGeometry x="35" y="530" width="110" height="50" as="geometry" />
        </mxCell>
      </root>
    </mxGraphModel>
  </diagram>
</mxfile>
